<?xml version="1.0" encoding="UTF-8"?> <svg xmlns="http://www.w3.org/2000/svg" id="Hansefit" viewBox="0 0 304.72 59.53"><defs><style>.cls-1{fill:#fff;}.cls-2{fill:#1a1a18;}.cls-3{fill:#003bb3;}</style></defs><title>hansefit_rgb</title><rect class="cls-1" width="304.72" height="59.53"></rect><path class="cls-2" d="M109.45,16l-4.88,27.69h-6l2-11.22H91.22l-2,11.22h-6L88.16,16h6l-2,11.08h9.38l2-11.08Z" transform="translate(0 0)"></path><path class="cls-2" d="M127.8,39.18H118l-2.11,4.53h-6.53L123,16h7.92l3.88,27.69h-6.48ZM127.23,34l-.73-7a40.94,40.94,0,0,1-.29-6.23h-.15A39.76,39.76,0,0,1,123.65,27L120.4,34Z" transform="translate(0 0)"></path><path class="cls-2" d="M157.4,34.23h.15a78.29,78.29,0,0,1,1-8.08L160.38,16h5.83l-4.88,27.69h-5.62L150.46,32.3a28,28,0,0,1-2.16-6.46h-.15a79.89,79.89,0,0,1-1,8.08l-1.72,9.79h-5.84L144.44,16h5.62L155.39,28A27.86,27.86,0,0,1,157.4,34.23Z" transform="translate(0 0)"></path><path class="cls-2" d="M171.79,25c0-6.25,5-9.54,11.76-9.54,7.09,0,9.86,3.5,8.94,8.49h-6.25c.4-2-.4-3.63-3.46-3.63-3.21,0-4.6,1.7-4.6,3.61,0,1.41,1,2.1,3,2.83L186,28.61c2.89,1.09,4.82,3,4.82,6.06,0,6.33-5.37,9.59-12.27,9.59-7.7,0-10.17-3.8-9.23-8.83h6.3c-.45,2.24.48,3.92,3.81,3.92s4.89-1.62,4.89-3.57c0-1.47-1.18-2.05-2.56-2.6l-5.33-2.08C173.57,30,171.79,28,171.79,25Z" transform="translate(0 0)"></path><path class="cls-2" d="M205.78,21.29l-1.07,6.06h11.14L215,32.24H203.85l-1.09,6.21h12.38l-.93,5.26H195.9L200.77,16H219.1l-.94,5.27Z" transform="translate(0 0)"></path><path class="cls-2" d="M231.58,21.29l-1.16,6.63h10.93l-.92,5.28H229.5l-1.85,10.51h-6L226.56,16h18.13l-.95,5.27Z" transform="translate(0 0)"></path><path class="cls-2" d="M251.92,43.71h-6L250.83,16h5.95Z" transform="translate(0 0)"></path><path class="cls-2" d="M282.52,21.29h-7.3l-3.94,22.42h-6l3.94-22.42h-7.32l.95-5.27h20.57Z" transform="translate(0 0)"></path><path class="cls-3" d="M0,0V59.53H59.53V0ZM23.86,43.88H17.78l2-11.44H10.25l1-5.5h9.56l2-11.3h6.08ZM47.93,32.44H38.38l-2,11.44H30.29l5-28.24h6.08l-2,11.3h9.56Z" transform="translate(0 0)"></path></svg> 